#!OML:ASF F:\VICON\USERDATA\INSTALL\rory3\rory3.ASF
:FULLY-SPECIFIED
:DEGREES
2135
root 10.2721 18.8664 -8.39103 11.6163 -19.792 -9.42389
lowerback 12.1319 3.04743 -8.70188
upperback 5.59701 2.73311 -8.69292
thorax -0.844671 1.26443 -4.63507
lowerneck -10.017 9.43878 -3.97484
upperneck 28.0565 13.154 3.36063
head 10.0537 5.88111 3.26091
rclavicle 2.38542e-014 3.18055e-015
rhumerus -2.76584 36.8439 -84.0586
rradius 124.403
rwrist -15.2345
rhand -34.398 3.07493
rfingers 7.12502
rthumb -7.56377 -26.7698
lclavicle 2.38542e-014 3.18055e-015
lhumerus 7.87775 -12.1111 89.6643
lradius 27.3285
lwrist 8.05975
lhand -32.1727 16.6618
lfingers 7.12502
lthumb -5.4155 46.5726
rfemur -28.3301 16.0098 13.0741
rtibia 24.1589
rfoot 4.38629 -8.61889
rtoes -19.5494
lfemur -21.6332 -1.04903 -12.7174
ltibia 32.1729
lfoot -17.021 13.0652
ltoes -0.968856
2136
root 10.2679 18.8638 -8.38825 11.6067 -19.9008 -9.46377
lowerback 12.2768 2.90164 -8.36486
upperback 5.53075 2.54378 -8.88669
thorax -0.975574 1.18135 -5.01549
lowerneck -9.80414 9.43944 -3.76515
upperneck 28.0471 13.0605 3.49681
head 10.0166 5.87581 3.25102
rclavicle 1.74931e-014 9.54166e-015
rhumerus -2.41107 37.5509 -83.9002
rradius 124.747
rwrist -14.4958
rhand -34.4847 3.51735
rfingers 7.12502
rthumb -7.64742 -26.3244
lclavicle 1.74931e-014 9.54166e-015
lhumerus 8.18286 -13.2183 89.1473
lradius 27.632
lwrist 8.42422
lhand -32.1098 16.6871
lfingers 7.12502
lthumb -5.35478 46.5994
rfemur -28.5304 15.7427 13.1631
rtibia 24.4914
rfoot 4.46704 -8.08679
rtoes -19.4178
lfemur -21.565 -1.00165 -12.6914
ltibia 32.1734
lfoot -16.9952 13.1577
ltoes -1.23407
2137
root 10.2645 18.8638 -8.38664 11.6034 -19.9176 -9.49637
lowerback 12.3958 2.73714 -8.03229
upperback 5.55278 2.34601 -9.03712
thorax -1.00395 1.09071 -5.34242
lowerneck -10.0754 9.38385 -3.7176
upperneck 28.3644 12.9082 3.82938
head 10.1651 5.83395 3.37532
rclavicle 2.8625e-014 6.36111e-015
rhumerus -1.82556 38.1325 -83.4678
rradius 125.163
rwrist -14.1929
rhand -34.0783 4.12182
rfingers 7.12502
rthumb -7.25519 -25.7338
lclavicle 2.8625e-014 6.36111e-015
lhumerus 8.62553 -14.4458 88.6132
lradius 27.9354
lwrist 8.82381
lhand -30.6589 16.5696
lfingers 7.12502
lthumb -3.95371 46.5126
rfemur -28.6838 15.4227 13.2501
rtibia 24.7776
rfoot 4.50462 -7.60957
rtoes -19.4917
lfemur -21.5469 -1.04293 -12.6515
ltibia 32.208
lfoot -17.0239 13.2628
ltoes -1.41141
2138
root 10.2617 18.8643 -8.38295 11.528 -19.8548 -9.43921
lowerback 12.5471 2.52741 -7.85448
upperback 5.6554 2.07878 -9.11464
thorax -0.977582 0.96071 -5.49429
lowerneck -10.524 9.35482 -3.79308
upperneck 28.7315 12.8385 4.11938
head 10.3587 5.80949 3.52736
rclavicle -3.18055e-014 -9.54166e-015
rhumerus -1.07343 38.7588 -82.8747
rradius 125.52
rwrist -13.6723
rhand -33.7134 4.82163
rfingers 7.12502
rthumb -6.90288 -25.0458
lclavicle -3.18055e-014 -9.54166e-015
lhumerus 9.03569 -15.64 88.1562
lradius 28.4183
lwrist 9.27184
lhand -28.2798 17.4975
lfingers 7.12502
lthumb -1.65612 47.4708
rfemur -28.7788 14.9845 13.2991
rtibia 25.0744
rfoot 4.53941 -7.11614
rtoes -19.4428
lfemur -21.4935 -1.17064 -12.6926
ltibia 32.2413
lfoot -17.0706 13.2786
ltoes -1.4525
2139
root 10.256 18.8615 -8.38013 11.4379 -19.9035 -9.41107
lowerback 12.7854 2.44254 -7.68426
upperback 5.66069 1.94957 -9.20185
thorax -1.09797 0.901466 -5.67823
lowerneck -10.2705 9.27519 -3.53011
upperneck 28.5635 12.6923 3.95967
head 10.2874 5.75788 3.39366
rclavicle -6.36111e-015 1.27222e-014
rhumerus -0.698891 39.1508 -82.4919
rradius 125.903
rwrist -12.7382
rhand -33.5382 4.48605
rfingers 7.12502
rthumb -6.73377 -25.3869
lclavicle -6.36111e-015 1.27222e-014
lhumerus 9.18439 -16.7257 87.8758
lradius 29.0975
lwrist 9.71768
lhand -27.0623 19.0384
lfingers 7.12502
lthumb -0.480277 49.0176
rfemur -28.9166 14.7074 13.3544
rtibia 25.4004
rfoot 4.5984 -6.71316
rtoes -19.1353
lfemur -21.3904 -1.22492 -12.7054
ltibia 32.2544
lfoot -17.1128 13.3072
ltoes -1.34698
2140
root 10.2458 18.8584 -8.37735 11.4593 -20.0604 -9.42332
lowerback 12.8851 2.36359 -7.66918
upperback 5.60753 1.82742 -9.1766
thorax -1.21497 0.842118 -5.6474
lowerneck -9.97942 9.25318 -3.43327
upperneck 28.3169 12.6668 3.76556
head 10.1656 5.74374 3.27885
rclavicle 3.65764e-014 7.63333e-014
rhumerus -0.27729 39.5613 -81.966
rradius 126.306
rwrist -12.1638
rhand -33.408 4.32924
rfingers 7.12502
rthumb -6.60812 -25.5477
lclavicle 3.65764e-014 7.63333e-014
lhumerus 9.33698 -17.0397 87.8381
lradius 29.5462
lwrist 9.54082
lhand -27.2455 19.8106
lfingers 7.12502
lthumb -0.6572 49.7893
rfemur -29.1696 14.5324 13.4051
rtibia 25.7374
rfoot 4.62649 -6.24495
rtoes -19.008
lfemur -21.348 -1.20718 -12.6774
ltibia 32.2412
lfoot -17.1744 13.4281
ltoes -1.14177
2141
root 10.2365 18.8582 -8.36947 11.4386 -20.2114 -9.30475
lowerback 12.932 2.31056 -7.73146
upperback 5.4909 1.73087 -9.15299
thorax -1.37156 0.795552 -5.57736
lowerneck -9.70584 9.21192 -3.35839
upperneck 28.3105 12.5983 3.68436
head 10.126 5.71168 3.21541
rclavicle 2.22639e-014 3.18055e-015
rhumerus -0.16009 39.8226 -81.6317
rradius 126.723
rwrist -11.8296
rhand -33.2392 4.47633
rfingers 7.12502
rthumb -6.44512 -25.4056
lclavicle 2.22639e-014 3.18055e-015
lhumerus 9.30724 -16.9818 87.9997
lradius 29.9855
lwrist 8.6821
lhand -27.1389 20.0625
lfingers 7.12502
lthumb -0.554218 50.0415
rfemur -29.34 14.2483 13.3328
rtibia 26.0714
rfoot 4.52954 -5.71442
rtoes -18.6925
lfemur -21.285 -1.05134 -12.8149
ltibia 32.2334
lfoot -17.2155 13.4245
ltoes -1.22009
2142
root 10.2291 18.8571 -8.36278 11.3471 -20.2357 -9.131
lowerback 13.1443 2.31175 -7.73763
upperback 5.39116 1.68753 -9.19603
thorax -1.59341 0.777679 -5.62694
lowerneck -9.47683 9.05021 -3.04493
upperneck 28.4081 12.3168 3.6189
head 10.157 5.60457 3.10947
rclavicle 3.18055e-014 4.13472e-014
rhumerus -0.280222 39.7427 -81.5363
rradius 127.163
rwrist -11.4052
rhand -33.1938 4.42834
rfingers 7.12502
rthumb -6.40126 -25.4549
lclavicle 3.18055e-014 4.13472e-014
lhumerus 9.14319 -17.3065 88.1467
lradius 30.6631
lwrist 8.24191
lhand -26.8134 20.2639
lfingers 7.12502
lthumb -0.239875 50.2435
rfemur -29.4617 13.7675 13.2579
rtibia 26.4334
rfoot 4.37659 -5.28125
rtoes -18.0612
lfemur -21.2017 -1.01527 -12.9905
ltibia 32.2212
lfoot -17.223 13.3668
ltoes -1.11939
2143
root 10.2183 18.8529 -8.35854 11.3099 -20.2609 -9.07728
lowerback 13.3177 2.15175 -7.86148
upperback 5.71693 1.47929 -9.04717
thorax -1.35553 0.665107 -5.36423
lowerneck -10.9465 8.95518 -3.44942
upperneck 28.8167 12.3251 3.71863
head 10.5546 5.55292 3.3216
rclavicle -3.49861e-014 -6.36111e-015
rhumerus 1.17203 39.8441 -80.3644
rradius 127.5
rwrist -11.3313
rhand -33.076 4.28417
rfingers 7.12502
rthumb -6.28757 -25.6025
lclavicle -3.49861e-014 -6.36111e-015
lhumerus 9.93645 -17.2059 88.1043
lradius 31.2945
lwrist 8.16123
lhand -28.0728 19.0063
lfingers 7.12502
lthumb -1.45626 48.9811
rfemur -29.6378 13.4137 13.2828
rtibia 26.8032
rfoot 4.29251 -5.01426
rtoes -17.7177
lfemur -21.1444 -1.05321 -13.0144
ltibia 32.1983
lfoot -17.2335 13.3756
ltoes -1.16799
2144
root 10.2055 18.8493 -8.35292 11.2258 -20.4113 -9.02272
lowerback 13.3459 2.20347 -8.04314
upperback 5.36564 1.49101 -8.81119
thorax -1.75691 0.675695 -5.0154
lowerneck -9.25715 8.87728 -3.81154
upperneck 28.5901 12.1273 3.92865
head 10.1099 5.47112 3.3074
rclavicle 1.43125e-014 7.31528e-014
rhumerus 0.338043 40.0378 -80.4344
rradius 127.984
rwrist -11.2152
rhand -32.7037 4.00813
rfingers 7.12502
rthumb -5.92811 -25.8889
lclavicle 1.43125e-014 7.31528e-014
lhumerus 9.00474 -17.5776 88.7359
lradius 32.02
lwrist 8.06524
lhand -31.982 15.1317
lfingers 7.12502
lthumb -5.23138 45.0471
rfemur -29.7386 13.2473 13.2664
rtibia 27.1382
rfoot 4.19754 -4.93511
rtoes -16.8081
lfemur -21.0027 -0.960418 -13.0607
ltibia 32.1722
lfoot -17.2901 13.3596
ltoes -1.14356
2145
root 10.1922 18.8493 -8.34747 11.1803 -20.5793 -8.96293
lowerback 13.4192 2.18808 -8.16446
upperback 5.24766 1.43549 -8.70477
thorax -1.92979 0.649675 -4.82912
lowerneck -9.17078 8.7665 -4.1253
upperneck 29.1165 11.8848 4.49736
head 10.2297 5.37452 3.54704
rclavicle 2.22639e-014 -2.8625e-014
rhumerus 0.381917 40.2236 -80.2184
rradius 128.449
rwrist -11.0488
rhand -32.2738 3.93392
rfingers 7.12502
rthumb -5.51307 -25.9744
lclavicle 2.22639e-014 -2.8625e-014
lhumerus 8.77835 -18.1652 88.875
lradius 32.6214
lwrist 8.2887
lhand -28.1298 19.4932
lfingers 7.12502
lthumb -1.51124 49.4676
rfemur -29.8852 13.2394 13.1904
rtibia 27.4326
rfoot 4.05054 -5.06994
rtoes -16.2121
lfemur -20.8823 -0.875572 -13.1176
ltibia 32.1363
lfoot -17.3277 13.4235
ltoes -1.09543
2146
root 10.18 18.852 -8.33607 11.1961 -20.693 -8.94228
lowerback 13.3558 2.04837 -8.2596
upperback 5.45956 1.2759 -8.63323
thorax -1.6768 0.562265 -4.66655
lowerneck -9.67617 8.76122 -3.89484
upperneck 28.6859 11.9966 3.94467
head 10.2243 5.39769 3.34489
rclavicle -6.04305e-014 -1.01778e-013
rhumerus 1.46767 40.4207 -79.5605
rradius 128.886
rwrist -10.9235
rhand -32.1754 3.63456
rfingers 7.12502
rthumb -5.4181 -26.2762
lclavicle -6.04305e-014 -1.01778e-013
lhumerus 9.46303 -18.7093 88.5413
lradius 33.0125
lwrist 8.94145
lhand -26.6284 21.151
lfingers 7.12502
lthumb -0.0612292 51.1307
rfemur -30.0285 13.1665 13.1622
rtibia 27.686
rfoot 3.98345 -5.10162
rtoes -15.6306
lfemur -20.7968 -0.739582 -13.1394
ltibia 32.0814
lfoot -17.3287 13.416
ltoes -1.63942
2147
root 10.1678 18.855 -8.32447 11.1124 -20.7775 -8.91081
lowerback 13.3852 2.05934 -8.2196
upperback 5.45786 1.29576 -8.51464
thorax -1.69694 0.572132 -4.5642
lowerneck -9.41614 8.6282 -3.96235
upperneck 28.6543 11.8207 3.88544
head 10.1709 5.30658 3.3008
rclavicle 3.02153e-014 7.63333e-014
rhumerus 1.51024 40.2359 -79.3627
rradius 129.402
rwrist -10.7732
rhand -32.0027 3.31431
rfingers 7.12502
rthumb -5.25138 -26.6006
lclavicle 3.02153e-014 7.63333e-014
lhumerus 9.53637 -19.5328 88.7067
lradius 33.3351
lwrist 9.40331
lhand -26.2644 21.5929
lfingers 7.12502
lthumb 0.290357 51.5724
rfemur -30.0113 13.1074 13.1182
rtibia 27.875
rfoot 3.81013 -5.33615
rtoes -15.393
lfemur -20.6035 -0.695111 -13.1554
ltibia 32.0162
lfoot -17.3855 13.358
ltoes -1.65561
2148
root 10.1544 18.8589 -8.31454 11.0306 -20.8244 -8.88308
lowerback 13.4993 2.02841 -8.10393
upperback 5.43529 1.25353 -8.45414
thorax -1.78373 0.553984 -4.56128
lowerneck -9.56631 8.51109 -4.12898
upperneck 29.2769 11.5878 4.34159
head 10.3929 5.21122 3.50109
rclavicle -1.11319e-014 9.54166e-014
rhumerus 1.46483 39.9735 -79.339
rradius 129.876
rwrist -10.799
rhand -31.8963 3.61622
rfingers 7.12502
rthumb -5.14859 -26.3012
lclavicle -1.11319e-014 9.54166e-014
lhumerus 9.64086 -20.3474 88.7222
lradius 33.6111
lwrist 9.93892
lhand -26.2936 22.4974
lfingers 7.12502
lthumb 0.262151 52.477
rfemur -29.9584 13.0506 13.0591
rtibia 27.9833
rfoot 3.54006 -5.75619
rtoes -15.4355
lfemur -20.4339 -0.719321 -13.1577
ltibia 31.9521
lfoot -17.355 13.4272
ltoes -1.74227
2149
root 10.1412 18.8609 -8.30339 11.0806 -20.9048 -8.85326
lowerback 13.3595 1.94995 -7.93779
upperback 5.50446 1.20068 -8.43196
thorax -1.63395 0.526774 -4.61481
lowerneck -9.29954 8.50578 -3.97645
upperneck 28.8144 11.6038 4.03095
head 10.2045 5.21697 3.33277
rclavicle 2.06736e-014 1.30403e-013
rhumerus 1.7792 39.6408 -79.2147
rradius 130.256
rwrist -10.8283
rhand -31.7936 3.55874
rfingers 7.12502
rthumb -5.04948 -26.3611
lclavicle 2.06736e-014 1.30403e-013
lhumerus 9.92298 -20.6471 88.7443
lradius 33.9067
lwrist 10.2575
lhand -26.7558 23.4853
lfingers 7.12502
lthumb -0.184218 53.4649
rfemur -30.0599 13.087 12.9296
rtibia 28.0353
rfoot 3.22482 -6.53923
rtoes -14.6
lfemur -20.3991 -0.839675 -13.1606
ltibia 31.8778
lfoot -17.3918 13.6388
ltoes -1.60746
